<svg xmlns="http://www.w3.org/2000/svg" xmlns:xlink="http://www.w3.org/1999/xlink" version="1.1" viewBox="2.84 1.13 9.65 1.56"><g transform="matrix(0.7046822236119207,0,0,0.7046822236119207,6.103311312258095,1.5366365841266385)"><g transform="matrix(1,0,0,1,0,0)" clip-path="url(#SvgjsClipPath21963)"><g clip-path="url(#SvgjsClipPath21961a9e5da62-0300-407e-8e75-0beea6eef810)"><path d=" M -2.1355307161285517 1.4168191253435003 L -2.1432991140440816 1.4199971063089443 C -2.2640623907309516 1.470844801756047 -2.391181629348709 1.4962686494795987 -2.518653976962627 1.4962686494795987 C -2.6422421256187802 1.4962686494795987 -2.765830274274933 1.4722572377406888 -2.8837686789925194 1.4242344142628696 L -2.8915370769080493 1.4210564332974256 C -3.080803498850044 1.3440786721344509 -3.2252250782796628 1.2215498504667792 -3.3251549241930665 1.075715835052518 L -3.325508033189227 1.0753627260563574 L -3.5341954499200456 0.9902634579816921 C -3.512655801154259 1.0382862814595115 -3.4872319534307077 1.0848966689526893 -3.4586301247417124 1.1293884024689045 C -3.337513739058682 1.318301715414738 -3.1598999139899817 1.4644888398251599 -2.9445034263321146 1.5520598708729474 L -2.936735028416585 1.5552378518383918 C -2.8022005008794584 1.60996974624326 -2.661663120407604 1.637865356939935 -2.5183008679664662 1.637865356939935 C -2.370701307571404 1.637865356939935 -2.225926619145624 1.608557310258619 -2.088214110643053 1.5502943258921462 L -2.0804457127275238 1.5471163449267022 C -1.866108552058138 1.4570735509057906 -1.69026027197024 1.308767772518407 -1.571262540264173 1.118442023587931 C -1.5433669295674974 1.0735971810755554 -1.5186492998362673 1.0266336845862174 -1.4974627600666408 0.9786108611083978 L -1.7057970678012992 1.066181892156186 C -1.803961368733901 1.2134283435550879 -1.9469705121788783 1.337722710203563 -2.1355307161285517 1.4168191253435003 Z" fill="#2e2e39" transform="matrix(1,0,0,1,0,0)" fill-rule="nonzero"/></g><g clip-path="url(#SvgjsClipPath21961a9e5da62-0300-407e-8e75-0beea6eef810)"><path d=" M -3.330804668131634 -0.009035001152346789 C -3.2333465851913528 -0.15663456154740985 -3.089984332750215 -0.2805758191997233 -2.901777237796702 -0.35967223433966167 C -2.8985992568312575 -0.36108467032430325 -2.8954212758658144 -0.3624971063089452 -2.8918901859042094 -0.3639095422935868 C -2.7718331272096606 -0.41440412874452937 -2.6450669975880636 -0.43947486747192044 -2.518653976962627 -0.43947486747192044 C -2.3950658283064734 -0.43947486747192044 -2.2714776796503204 -0.41546345573301047 -2.1535392749327342 -0.36744063225519097 L -2.145770877017205 -0.36426265128974733 C -1.9565044550752098 -0.2872848901267719 -1.812082875645591 -0.1647560684591 -1.7121530297321876 -0.018568944048678926 L -1.503112504005208 0.06653032402598669 C -1.5246521527709946 0.01850750054816719 -1.5500760004945464 -0.028102886945010397 -1.5786778291835422 -0.07259462046122567 C -1.6994411058704113 -0.26080171541473907 -1.8770549309391114 -0.4069888398251602 -2.0924514185969785 -0.4945598708729489 L -2.1002198165125083 -0.49773785183839275 C -2.234754344049635 -0.5524697462432607 -2.375291724521489 -0.5803653569399351 -2.518653976962627 -0.5803653569399351 C -2.665194210369209 -0.5803653569399351 -2.8085564628103463 -0.5514104192547792 -2.9452096443244353 -0.49420676187678836 C -2.949446952278361 -0.4924412168959863 -2.9536842602322864 -0.490675671915184 -2.9575684591900506 -0.48891012693438196 C -3.171199401867116 -0.3988673329134703 -3.346694572958853 -0.25056155452608664 -3.4653391956687605 -0.06094202358793133 C -3.493234806365435 -0.016097181075555467 -3.5179524360966656 0.030866315413782597 -3.5391389758662917 0.07853602989544162 L -3.331157777127794 -0.008681892156186644 L -3.330804668131634 -0.009035001152346789 Z" fill="#2e2e39" transform="matrix(1,0,0,1,0,0)" fill-rule="nonzero"/></g><g clip-path="url(#SvgjsClipPath21961a9e5da62-0300-407e-8e75-0beea6eef810)"><path d=" M -3.3152678723005744 0.6802337593528275 C -3.3156209812967345 0.677761996379704 -3.3159740902928956 0.6756433424027418 -3.3166803082852163 0.6731715794296188 C -3.317386526277537 0.6685811624795331 -3.3184458532660184 0.6636376365332864 -3.3191520712583396 0.6590472195832012 C -3.3195051802544997 0.6565754566100778 -3.3198582892506607 0.6544568026331156 -3.3202113982468204 0.6519850396599921 C -3.320564507242981 0.650925712671511 -3.320564507242981 0.6495132766868691 -3.3209176162391416 0.648453949698388 C -3.321270725235302 0.645982186725265 -3.3216238342314623 0.6438635327483023 -3.3219769432276225 0.6413917697751793 C -3.3226831612199437 0.6353889168404517 -3.323742488208425 0.629739172901885 -3.324448706200746 0.6237363199671572 C -3.3248018151969063 0.6212645569940342 -3.3251549241930674 0.619145903017072 -3.3251549241930674 0.6166741400439485 C -3.325861142185388 0.6106712871092209 -3.326567360177709 0.6046684341744936 -3.326920469173869 0.598665581239766 C -3.3272735781700296 0.596193818266643 -3.3272735781700296 0.5937220552935202 -3.32762668716619 0.5916034013165573 C -3.32762668716619 0.5905440743280762 -3.3279797961623503 0.5891316383434343 -3.3279797961623503 0.5880723113549532 C -3.3283329051585113 0.5856005483818297 -3.3283329051585113 0.5831287854087069 -3.3283329051585113 0.5810101314317443 C -3.328686014154672 0.5760666054854983 -3.3290391231508325 0.5714761885354122 -3.3290391231508325 0.5665326625891663 C -3.3290391231508325 0.5640608996160429 -3.3293922321469926 0.5615891366429203 -3.3293922321469926 0.5594704826659577 C -3.3293922321469926 0.5569987196928342 -3.3293922321469926 0.5545269567197116 -3.3297453411431537 0.5524083027427485 C -3.3297453411431537 0.5499365397696255 -3.3297453411431537 0.5474647767965027 -3.330098450139314 0.5453461228195399 C -3.330098450139314 0.5428743598464169 -3.330098450139314 0.5404025968732941 -3.330098450139314 0.5382839428963312 C -3.330098450139314 0.535812179923208 -3.330098450139314 0.5333404169500854 -3.330098450139314 0.5312217629731223 C -3.330098450139314 0.5262782370268767 -3.330098450139314 0.5216878200767906 -3.330098450139314 0.5167442941305443 C -3.330098450139314 0.5142725311574213 -3.330098450139314 0.5118007681842983 -3.330098450139314 0.5096821142073357 C -3.330098450139314 0.5047385882610896 -3.3297453411431537 0.500148171311004 -3.3297453411431537 0.4952046453647577 C -3.3297453411431537 0.49273288239163426 -3.3293922321469926 0.4902611194185117 -3.3293922321469926 0.48778935644538846 C -3.3293922321469926 0.48673002945690735 -3.3293922321469926 0.485317593472265 -3.3290391231508325 0.4842582664837839 C -3.3290391231508325 0.4817865035106609 -3.328686014154672 0.47931474053753786 -3.328686014154672 0.47684297756441485 C -3.3283329051585113 0.47084012462968705 -3.3279797961623503 0.4648372716949599 -3.32727357817003 0.45883441876023234 L -4.071274233080072 0.772042098354541 L -3.788787036151722 0.8871556311028436 L -3.314561654308254 0.6876490482721963 C -3.314208545312093 0.6848241763029131 -3.314914763304414 0.6827055223259505 -3.3152678723005744 0.6802337593528275 Z" fill="#7e909a" transform="matrix(1,0,0,1,0,0)" fill-rule="nonzero"/></g><g clip-path="url(#SvgjsClipPath21961a9e5da62-0300-407e-8e75-0beea6eef810)"><path d=" M -3.3251549241930665 1.0757158350525176 L -2.8247994766337268 1.2794597258370901 C -2.8258588036222076 1.27910661684093 -2.8269181306106894 1.278753507844769 -2.8279774575991707 1.2780472898524486 C -2.8300961115761334 1.277341071860127 -2.8322147655530956 1.2762817448716461 -2.833980310533898 1.275575526879325 C -2.8410424904571068 1.272750654910042 -2.848104670380316 1.2695726739445976 -2.855166850303524 1.2663946929791536 C -2.8572855042804868 1.2653353659906728 -2.8590510492612893 1.2646291479983516 -2.861169703238252 1.2635698210098707 C -2.8622290302267333 1.2632167120137106 -2.8632883572152146 1.2625104940213894 -2.863994575207535 1.2621573850252292 C -2.8661132291844984 1.2610980580367483 -2.8678787741653 1.2603918400444263 -2.8699974281422627 1.2593325130559454 C -2.871056755130744 1.2589794040597853 -2.8721160821192258 1.258273186067464 -2.8728223001115465 1.257920077071304 C -2.8767064990693108 1.2561545320905019 -2.880590698027076 1.2540358781135392 -2.88447489698484 1.2522703331327372 C -2.8883590959426053 1.250151679155774 -2.8922432949003705 1.248386134174972 -2.8961274938581347 1.246267480198009 C -2.901071019804381 1.2437957172248861 -2.9056614367544666 1.2413239542517638 -2.910251853704552 1.2384990822824795 C -2.9113111806930334 1.238145973286319 -2.9120173986853546 1.2374397552939986 -2.913076725673836 1.2370866462978376 C -2.915901597643119 1.2356742103131966 -2.9187264696124027 1.2339086653323936 -2.921551341581686 1.2324962293477526 C -2.923316886562488 1.2314369023592713 -2.9254355405394508 1.2303775753707895 -2.9272010855202533 1.2293182483823082 C -2.935675701428104 1.2243747224360622 -2.943797208339794 1.2194311964898161 -2.951918715251484 1.21448767054357 C -2.9536842602322864 1.2134283435550888 -2.955449805213088 1.212369016566607 -2.9572153501938905 1.2109565805819655 C -2.958980895174693 1.2095441445973236 -2.9607464401554946 1.2084848176088427 -2.962511985136297 1.207425490620361 C -2.96533685710558 1.205659945639559 -2.9678086200787037 1.2038944006587564 -2.9706334920479867 1.2021288556779544 C -2.9731052550211103 1.2003633106971523 -2.9759301269903933 1.1985977657163502 -2.9784018899635165 1.1968322207355482 C -2.981932979925121 1.1943604577624245 -2.9854640698867256 1.1918886947893021 -2.9889951598483298 1.189416931816179 C -3.001000865717785 1.1809423159083279 -3.0130065715872396 1.1721145910043176 -3.024306059464373 1.1629337571041463 C -3.025365386452855 1.161874430115665 -3.026777822437497 1.1611682121233433 -3.027837149425978 1.1601088851348624 C -3.040902182283914 1.1495156152500496 -3.05361410614569 1.1385692363690758 -3.065972921011305 1.1272697484919423 C -3.066679139003626 1.126563530499621 -3.0673853569959464 1.1258573125073 -3.0680915749882676 1.1251510945149792 C -3.082215934834685 1.1120860616570432 -3.095987185684942 1.0986679198029465 -3.109052218542878 1.0845435599565292 C -3.11046465452752 1.0831311239718873 -3.111877090512162 1.0813655789910848 -3.1132895264968043 1.0799531430064433 C -3.114701962481446 1.0785407070218018 -3.1161143984660873 1.0771282710371604 -3.1171737254545686 1.075715835052518 C -3.1171737254545686 1.075715835052518 -3.1175268344507296 1.0753627260563574 -3.1175268344507296 1.0753627260563574 C -3.118939270435371 1.073950290071716 -3.1203517064200126 1.072537854087074 -3.121411033408494 1.0711254181024321 C -3.122823469393136 1.0697129821177906 -3.1242359053777777 1.0679474371369881 -3.12564834136242 1.0665350011523467 C -3.126707668350901 1.0654756741638653 -3.1277669953393823 1.064416347175384 -3.128473213331703 1.0630039111907426 C -3.129179431324024 1.062297693198421 -3.1298856493163445 1.06123836620994 -3.1305918673086657 1.0605321482176189 C -3.131651194297147 1.059472821229138 -3.132357412289468 1.0584134942406562 -3.133416739277949 1.0573541672521753 C -3.1355353932549117 1.0548824042790517 -3.137654047231875 1.0524106413059289 -3.1397727012088366 1.049938878332806 C -3.145422445147404 1.0432298074057575 -3.150719080089811 1.0365207364787095 -3.1563688240283776 1.029811665551661 C -3.1595468049938216 1.0255743575977352 -3.162724785959265 1.0213370496438103 -3.1659027669247095 1.017099741689885 C -3.1687276388939924 1.0135686517282805 -3.171199401867116 1.0096844527705153 -3.1740242738363995 1.0061533628089112 C -3.175436709821041 1.0043878178281092 -3.176849145805683 1.002269163851146 -3.1782615817903253 1.000503618870344 C -3.178967799782646 0.999444291881863 -3.1796740177749667 0.998738073889542 -3.1803802357672875 0.997678746901061 C -3.1821457807480895 0.9952069839279375 -3.183911325728892 0.9927352209548147 -3.1853237617135335 0.9902634579816917 C -3.187442415690496 0.9874385860124081 -3.1892079606712986 0.9846137140431245 -3.1909735056521007 0.9817888420738411 C -3.1913266146482613 0.9810826240815199 -3.191679723644422 0.98072951508536 -3.192032832640582 0.9800232970930388 C -3.1934452686252235 0.9779046431160764 -3.1945045956137053 0.9761390981352739 -3.1959170315983467 0.9740204441583112 C -3.196976358586828 0.9726080081736698 -3.1976825765791492 0.9711955721890281 -3.19874190356763 0.9697831362043857 C -3.2022729935292342 0.9644865012619795 -3.205804083490839 0.9588367573234123 -3.2089820644562828 0.9535401223810057 C -3.2103945004409242 0.9510683594078827 -3.211806936425566 0.9485965964347595 -3.213572481406368 0.9461248334616364 C -3.2146318083948495 0.9443592884808344 -3.215691135383331 0.9422406345038715 -3.2171035713679728 0.9404750895230695 C -3.2181628983564536 0.9387095445422672 -3.218869116348775 0.9372971085576253 -3.219928443337256 0.9355315635768232 C -3.2245188602873416 0.9274100566651334 -3.229109277237427 0.9192885497534432 -3.2333465851913523 0.9111670428417534 C -3.233699694187513 0.910460824849432 -3.2344059121798336 0.9094014978609509 -3.234759021175994 0.90869527986863 C -3.235112130172155 0.9076359528801489 -3.235818348164475 0.9069297348878277 -3.2361714571606357 0.9058704078993466 C -3.2365245661567963 0.9051641899070256 -3.2372307841491166 0.9041048629185443 -3.2375838931452776 0.9033986449262233 C -3.2379370021414378 0.9023393179377422 -3.238643220133759 0.9016330999454211 -3.238996329129919 0.90057377295694 C -3.2393494381260797 0.8995144459684589 -3.2400556561184004 0.8988082279761379 -3.2404087651145606 0.8977489009876568 C -3.241468092103042 0.8956302470106939 -3.242880528087684 0.8931584840375711 -3.2439398550761647 0.8910398300606087 C -3.246058509053128 0.886802522106683 -3.2481771630300904 0.8825652141527579 -3.2499427080108925 0.8786810151949932 C -3.2506489260032136 0.8769154702141907 -3.251708252991695 0.8751499252333886 -3.252414470984016 0.8733843802525866 C -3.2527675799801763 0.8723250532641055 -3.2534737979724975 0.8712657262756239 -3.2538269069686576 0.870559508283303 C -3.254180015964818 0.869853290290982 -3.254533124960979 0.8687939633025009 -3.254886233957139 0.86808774531018 C -3.255239342953299 0.8670284183216989 -3.25594556094562 0.8659690913332173 -3.2562986699417804 0.8649097643447362 C -3.2570048879341016 0.8631442193639339 -3.258064214922583 0.8613786743831316 -3.258770432914904 0.8596131294023296 C -3.2591235419110642 0.8585538024138485 -3.259829759903385 0.8574944754253667 -3.2601828688995456 0.8564351484368856 C -3.2605359778957057 0.8557289304445647 -3.2608890868918663 0.8546696034560836 -3.2612421958880264 0.8539633854637626 C -3.261595304884187 0.8529040584752815 -3.2623015228765073 0.8518447314868 -3.2626546318726684 0.8507854044983184 C -3.263360849864989 0.8490198595175164 -3.26406706785731 0.8472543145367143 -3.264773285849631 0.8454887695559122 C -3.266538830830433 0.8416045705981471 -3.267951266815075 0.8377203716403822 -3.2697168117958766 0.8334830636864573 C -3.270776138784358 0.8306581917171737 -3.2718354657728397 0.8281864287440507 -3.2728947927613206 0.8253615567747675 C -3.2732479017574816 0.8243022297862864 -3.273954119749802 0.8228897938016441 -3.2743072287459625 0.821830466813163 C -3.274660337742123 0.821124248820842 -3.275013446738283 0.8204180308285213 -3.275013446738283 0.8197118128362003 C -3.2753665557344442 0.8186524858477192 -3.2760727737267645 0.8172400498630769 -3.276425882722925 0.8161807228745958 C -3.2767789917190857 0.8154745048822748 -3.277132100715246 0.8147682868899543 -3.277132100715246 0.8140620688976331 C -3.277485209711407 0.813002741909152 -3.278191427703727 0.8115903059245101 -3.278544536699888 0.8105309789360285 C -3.2820756266614923 0.8013501450358574 -3.2852536076269363 0.791816202139526 -3.28843158859238 0.7822822592431938 C -3.2887846975885404 0.7808698232585521 -3.289137806584701 0.7798104962700706 -3.2898440245770217 0.7783980602854291 C -3.290197133573182 0.7776918422931077 -3.290197133573182 0.776985624300787 -3.2905502425693425 0.7766325153046266 C -3.2919626785539844 0.7723952073507013 -3.293375114538626 0.7681578993967763 -3.2944344415271076 0.7639205914428507 C -3.2983186404848723 0.7505024495887543 -3.3022028394426375 0.7370843077346575 -3.3053808204080815 0.7236661658805609 C -3.3057339294042416 0.7222537298959194 -3.3060870384004026 0.7204881849151173 -3.3064401473965623 0.7190757489304757 C -3.3064401473965623 0.7187226399343151 -3.306793256392723 0.7180164219419941 -3.306793256392723 0.7176633129458337 C -3.3071463653888835 0.716250876961192 -3.307499474385044 0.71448533198039 -3.3078525833812042 0.7130728959957483 C -3.309618128362006 0.7049513890840585 -3.3113836733428084 0.6964767731762075 -3.313149218323611 0.6883552662645177 L -3.313149218323611 0.6883552662645177 L -3.7873746001670785 0.887861849095165 L -3.7873746001670785 0.887861849095165 L -3.533842340923884 0.9913227849701732 L -3.5334892319277236 0.9913227849701732 L -3.324801815196905 1.0764220530448387 L -3.3251549241930665 1.0757158350525176 Z" fill="#f0eadd" transform="matrix(1,0,0,1,0,0)" fill-rule="nonzero"/></g><g clip-path="url(#SvgjsClipPath21961a9e5da62-0300-407e-8e75-0beea6eef810)"><path d=" M -3.0885718967655733 0.35819835485450835 C -3.0885718967655733 0.35784524585834787 -3.0885718967655733 0.35784524585834787 -3.0885718967655733 0.35819835485450835 L -2.665900428361529 0.17987831179348723 C -2.636945490676373 0.16751949692787194 -2.6062250080104152 0.15904488102002157 -2.5751514163482967 0.15445446406993557 C -2.5719734353828527 0.15410135507377498 -2.568795454417409 0.15339513708145447 -2.5656174734519643 0.15304202808529388 C -2.5624394924865204 0.1526889190891334 -2.559261511521077 0.15233581009297292 -2.556083530555633 0.15198270109681278 C -2.5529055495901884 0.15162959210065274 -2.549727568624745 0.15127648310449182 -2.5465495876593005 0.15127648310449182 C -2.543371606693857 0.15092337410833134 -2.540193625728413 0.15092337410833134 -2.5370156447629686 0.15057026511217086 C -2.530659682832081 0.1502171561160104 -2.5243037209011927 0.1502171561160104 -2.517947758970305 0.1502171561160104 C -2.512298015031738 0.1502171561160104 -2.5062951620970106 0.1502171561160104 -2.5006454181584434 0.15057026511217086 C -2.4981736551853206 0.15057026511217086 -2.495348783216037 0.15092337410833134 -2.492877020242914 0.15092337410833134 C -2.490405257269791 0.15092337410833134 -2.4875803853005074 0.15127648310449182 -2.485108622327384 0.1516295921006523 C -2.4483852867266984 0.15480757306609605 -2.411661951126013 0.16363529797010723 -2.3759979425138087 0.17811276681268517 C -2.2241610741648206 0.23990684114076166 -2.1341182801439094 0.38962505551278737 -2.1408273510709575 0.5449930138233797 L -1.928961953374695 0.45565643779478926 C -1.9547389100944068 0.2494407840370938 -2.0882141106430523 0.062293016072061946 -2.2944297644007476 -0.02174692501412223 C -2.346689895832492 -0.042933464783748376 -2.400362463248879 -0.05635160663784489 -2.453681921669105 -0.062001350576411984 C -2.4565067936383884 -0.06235445957257246 -2.4589785566115117 -0.06270756856873305 -2.461803428580795 -0.06270756856873305 C -2.463922082557758 -0.06306067756489353 -2.466040736534721 -0.06306067756489353 -2.468512499507843 -0.06341378656105401 C -2.475574679431052 -0.0641200045533753 -2.482636859354261 -0.06447311354953544 -2.489345930281309 -0.06482622254569592 C -2.489345930281309 -0.06482622254569592 -2.4896990392774696 -0.06482622254569592 -2.4896990392774696 -0.06482622254569592 C -2.4992329821738015 -0.0651793315418564 -2.5084138160739724 -0.06553244053801699 -2.5179477589703048 -0.06553244053801699 C -2.521478848931909 -0.06553244053801699 -2.5250099388935134 -0.06553244053801699 -2.528894137851278 -0.06553244053801699 L -2.52924724684744 -0.06553244053801699 C -2.532778336809044 -0.06553244053801699 -2.5363094267706487 -0.06553244053801699 -2.539840516732253 -0.0651793315418564 C -2.5401936257284135 -0.0651793315418564 -2.540546734724574 -0.0651793315418564 -2.540899843720734 -0.0651793315418564 C -2.5444309336823387 -0.0651793315418564 -2.547962023643943 -0.06482622254569592 -2.5514931136055474 -0.06482622254569592 L -2.5514931136055474 -0.06482622254569592 C -2.5553773125633126 -0.06447311354953544 -2.5589084025249167 -0.06447311354953544 -2.562792601482682 -0.06412000455337497 C -2.564558146463484 -0.06412000455337497 -2.5666768004404465 -0.06376689555721415 -2.568442345421249 -0.06376689555721415 C -2.570207890402051 -0.06376689555721415 -2.5716203263866926 -0.06341378656105356 -2.5733858713674946 -0.06341378656105356 C -2.575857634340618 -0.06306067756489309 -2.57797628831758 -0.06306067756489309 -2.5804480512907033 -0.06270756856873261 C -2.5843322502484685 -0.06235445957257213 -2.5885695582023938 -0.061648241580251506 -2.592453757160158 -0.06129513258409103 C -2.5973972831064045 -0.06058891459177007 -2.6023408090526505 -0.05988269659944945 -2.6072843349988966 -0.05917647860712849 C -2.6563664854651976 -0.051761189687759224 -2.7040361999468567 -0.03834304783366271 -2.749234151455393 -0.019275162040999105 L -2.749234151455393 -0.019275162040999105 C -2.749234151455393 -0.019275162040999105 -2.7495872604515537 -0.019275162040999105 -2.7495872604515537 -0.019275162040999105 L -2.7495872604515537 -0.019628271037159695 L -3.2573579969302626 0.19435578063606596 L -4.354114539004582 0.6562223476139176 L -4.070921124083911 0.7716889893583813 L -4.070568015087751 0.7716889893583813 L -4.070568015087751 0.7716889893583813 L -3.326567360177708 0.45812820076791205 L -3.0885718967655733 0.35819835485450835 Z" fill="#587284" transform="matrix(1,0,0,1,0,0)" fill-rule="nonzero"/></g><g clip-path="url(#SvgjsClipPath21961a9e5da62-0300-407e-8e75-0beea6eef810)"><path d=" M -2.7492341514553926 -0.019275162040999883 L -2.7492341514553926 -0.019275162040999883 L -2.7492341514553926 -0.018922053044839404 C -2.7492341514553926 -0.018922053044839404 -2.7488810424592325 -0.018922053044839404 -2.7492341514553926 -0.019275162040999883 C -2.691677385081241 -0.04293346478374915 -2.6305895287454852 -0.058117151618648055 -2.5680892364250885 -0.06341378656105479 C -2.566323691444286 -0.06341378656105479 -2.5642050374673233 -0.06376689555721526 -2.5624394924865213 -0.06376689555721526 C -2.5589084025249167 -0.06412000455337574 -2.555024203567152 -0.06412000455337574 -2.551140004609387 -0.06447311354953622 C -2.530659682832082 -0.06553244053801732 -2.5098262520586156 -0.0658855495341778 -2.48899282128515 -0.0648262225456967 C -2.481930641361941 -0.06447311354953622 -2.474868461438732 -0.06412000455337574 -2.468159390511684 -0.06341378656105512 C -2.4660407365347212 -0.06306067756489464 -2.4639220825577586 -0.06306067756489464 -2.461450319584636 -0.06270756856873372 C -2.4586254476153524 -0.06235445957257324 -2.4561536846422296 -0.06235445957257324 -2.453328812672946 -0.06200135057641276 C -2.3996562452565593 -0.055998497641685185 -2.345983677840173 -0.04293346478374915 -2.2940766554045884 -0.02174692501412301 C -2.088214110643053 0.062293016072060836 -1.954385801098247 0.24944078403709302 -1.9286088443785352 0.45565643779478904 L -1.9286088443785352 0.45565643779478904 L -1.9286088443785352 0.45565643779478904 C -1.9183686834898825 0.5361652889193685 -1.92437153642461 0.6187927940209111 -1.9487360571596803 0.6996547541416515 L -1.949089166155841 0.6996547541416515 C -1.949089166155841 0.6996547541416515 -1.949089166155841 0.6996547541416515 -1.949089166155841 0.700007863137812 C -1.9543858010982476 0.7180164219419941 -1.9607417630291355 0.7356718717500162 -1.9681570519485048 0.7533273215580382 C -2.0299511262765813 0.9051641899070265 -2.147536421998007 1.0174528506860456 -2.2877206934737004 1.0767751620409993 L -2.2877206934737004 1.0767751620409993 L -1.779949956994991 0.8627911103677738 C -1.7774781940218678 0.8574944754253674 -1.7750064310487446 0.8521978404829608 -1.7728877770717824 0.8469012055405541 C -1.7711222320909803 0.8430170065827892 -1.7693566871101774 0.8387796986288644 -1.7679442511255363 0.8348954996710992 C -1.7365175504672572 0.7575646295119635 -1.717802773670754 0.6784682143720256 -1.7107405937475457 0.5993717992320874 C -1.7107405937475457 0.5993717992320874 -1.7107405937475457 0.5990186902359266 -1.7107405937475457 0.5990186902359266 C -1.7107405937475457 0.5990186902359266 -1.7107405937475457 0.5990186902359266 -1.7107405937475457 0.5990186902359266 L -1.7107405937475457 0.5990186902359266 C -1.7103874847513847 0.5961938182666434 -1.7103874847513847 0.5933689462973598 -1.7100343757552237 0.5908971833242366 C -1.7100343757552237 0.5908971833242366 -1.7100343757552237 0.5905440743280762 -1.7100343757552237 0.5905440743280762 C -1.7043846318166573 0.5163911851343844 -1.709328157762903 0.4422382959406924 -1.7234525176093203 0.37055716972012376 L -1.7234525176093203 0.37055716972012376 C -1.7234525176093203 0.3698509517278027 -1.7238056266054813 0.36914473373548207 -1.7238056266054813 0.3684385157431611 C -1.7379299864518987 0.29781671651107344 -1.7615882891946484 0.22966668025210923 -1.7937212078452478 0.16575395194706977 C -1.7937212078452478 0.16575395194706977 -1.7937212078452478 0.16575395194706977 -1.7937212078452478 0.16575395194706977 C -1.7940743168414084 0.1650477339547488 -1.794427425837569 0.1639884069662677 -1.7951336438298893 0.16328218897394675 C -1.7951336438298893 0.16328218897394675 -1.7951336438298893 0.16328218897394675 -1.7951336438298893 0.16328218897394675 C -1.7954867528260499 0.16257597098162568 -1.7958398618222104 0.16151664399314425 -1.7965460798145312 0.1608104260008233 C -1.7965460798145312 0.1608104260008233 -1.7965460798145312 0.1608104260008233 -1.7965460798145312 0.16045731700466281 C -1.7968991888106913 0.15975109901234175 -1.797252297806852 0.15904488102002123 -1.797605406803012 0.15833866302770017 C -1.797605406803012 0.1579855540315397 -1.7979585157991727 0.1579855540315397 -1.7979585157991727 0.1576324450353792 C -1.7983116247953332 0.15692622704305825 -1.7986647337914934 0.15622000905073763 -1.7990178427876535 0.15551379105841623 C -1.7990178427876535 0.15516068206225575 -1.7993709517838141 0.15516068206225575 -1.7993709517838141 0.15480757306609527 C -1.7997240607799747 0.15410135507377432 -1.8000771697761353 0.1533951370814537 -1.8004302787722954 0.15268891908913274 C -1.8004302787722954 0.15233581009297215 -1.800783387768456 0.15233581009297215 -1.800783387768456 0.15198270109681167 C -1.8011364967646166 0.1512764831044907 -1.8014896057607772 0.1505702651121701 -1.8018427147569374 0.1502171561160096 C -1.8018427147569374 0.14986404711984913 -1.802195823753098 0.1495109381236882 -1.802195823753098 0.1495109381236882 C -1.802548932749258 0.14880472013136725 -1.8029020417454187 0.1484516111352071 -1.8032551507415788 0.14774539314288615 C -1.8032551507415788 0.14739228414672567 -1.8036082597377394 0.1470391751505652 -1.8036082597377394 0.14668606615440505 C -1.8039613687339 0.1459798481620841 -1.8043144777300602 0.14562673916592395 -1.8043144777300602 0.144920521173603 C -1.8046675867262207 0.1445674121774425 -1.8046675867262207 0.14421430318128203 -1.8050206957223813 0.1438611941851219 C -1.805373804718542 0.1435080851889614 -1.8057269137147025 0.14280186719664079 -1.8057269137147025 0.14244875820047986 C -1.8060800227108627 0.14209564920431939 -1.8060800227108627 0.1417425402081589 -1.8064331317070232 0.14138943121199876 C -1.8067862407031843 0.14103632221583828 -1.8071393496993449 0.14033010422351766 -1.8071393496993449 0.13997699522735718 C -1.807492458695505 0.1396238862311967 -1.807492458695505 0.13927077723503622 -1.8078455676916656 0.13891766823887608 C -1.8081986766878262 0.1385645592427156 -1.8081986766878262 0.13785834125039498 -1.8085517856839868 0.1375052322542345 C -1.808904894680147 0.13715212325807402 -1.808904894680147 0.13679901426191354 -1.8092580036763075 0.13609279626959292 C -1.809611112672468 0.13573968727343244 -1.809611112672468 0.13503346928111137 -1.8099642216686287 0.1346803602849509 C -1.8103173306647893 0.13432725128879042 -1.8103173306647893 0.1336210332964698 -1.8106704396609494 0.13326792430030932 C -1.81102354865711 0.13291481530414884 -1.81102354865711 0.13256170630798836 -1.8113766576532706 0.1322085973118282 C -1.8117297666494312 0.13185548831566773 -1.8120828756455918 0.1311492703233471 -1.8120828756455918 0.13079616132718663 C -1.8124359846417524 0.13044305233102615 -1.8124359846417524 0.13008994333486568 -1.812789093637913 0.12973683433870553 C -1.8131422026340736 0.12938372534254505 -1.8134953116302337 0.12867750735022443 -1.8138484206263938 0.12832439835406395 C -1.8142015296225544 0.12797128935790303 -1.8142015296225544 0.12761818036174255 -1.814554638618715 0.12726507136558252 C -1.8149077476148756 0.12655885337326145 -1.8152608566110362 0.12620574437710141 -1.815613965607196 0.12549952638478035 C -1.815613965607196 0.12514641738861987 -1.8159670746033565 0.12479330839245939 -1.8159670746033565 0.12479330839245939 C -1.816320183599517 0.12408709040013843 -1.8166732925956777 0.12373398140397829 -1.8170264015918378 0.12302776341165733 C -1.8170264015918378 0.12267465441549685 -1.8173795105879984 0.12232154541933626 -1.8173795105879984 0.12232154541933626 C -1.8177326195841585 0.12161532742701497 -1.8180857285803191 0.12090910943469435 -1.8184388375764793 0.12055600043853387 C -1.8184388375764793 0.1202028914423734 -1.8187919465726403 0.1202028914423734 -1.8187919465726403 0.11984978244621292 C -1.8191450555688005 0.11914356445389185 -1.819498164564961 0.11843734646157122 -1.8198512735611212 0.11773112846925027 C -1.8198512735611212 0.11737801947308979 -1.8202043825572818 0.11737801947308979 -1.8202043825572818 0.11702491047692931 C -1.8205574915534424 0.11631869248460835 -1.8209106005496025 0.11561247449228773 -1.8216168185419233 0.11490625649996633 C -1.8216168185419233 0.11490625649996633 -1.8216168185419233 0.11455314750380585 -1.8219699275380838 0.11455314750380585 C -1.8223230365342444 0.1138469295114849 -1.8230292545265647 0.1127876025230038 -1.8233823635227253 0.11208138453068273 C -1.8233823635227253 0.11208138453068273 -1.8233823635227253 0.11208138453068273 -1.8233823635227253 0.11208138453068273 C -1.823735472518886 0.11137516653836177 -1.8244416905112066 0.11031583954988067 -1.8247947995073672 0.10960962155755971 C -1.8247947995073672 0.10960962155755971 -1.8247947995073672 0.10960962155755971 -1.8247947995073672 0.10960962155755971 C -1.8251479085035274 0.10890340356523831 -1.8258541264958486 0.10784407657675721 -1.8262072354920091 0.10713785858443625 C -1.8262072354920091 0.10713785858443625 -1.8262072354920091 0.10713785858443625 -1.8262072354920091 0.10713785858443625 C -1.9123658305551556 -0.03375263088357827 -2.0419568321460364 -0.14957238162420222 -2.205446297368319 -0.21772241788316643 C -2.2075649513452817 -0.21842863587548744 -2.2096836053222444 -0.21948796286396854 -2.2114491503030465 -0.2201941808562895 C -2.2301639270995497 -0.22796257877181964 -2.2492318128922135 -0.23467164969886783 -2.268299698684877 -0.24102761162975522 C -2.271477679650321 -0.2420869386182367 -2.274655660615765 -0.24314626560671815 -2.2781867505773694 -0.24420559259519925 C -2.284542712508257 -0.24597113757600136 -2.2905455654429847 -0.24808979155296434 -2.296901527373872 -0.2498553365337664 C -2.300079508339316 -0.2509146635222475 -2.3036105983009207 -0.2516208815145685 -2.3067885792663643 -0.2526802085030496 C -2.4854617313235456 -0.30105614097703 -2.6701377363154544 -0.28551934514597016 -2.832214765553095 -0.21701619989084547 C -2.8343334195300582 -0.21630998189852446 -2.8360989645108603 -0.21525065491004336 -2.838217618487823 -0.21454443691772201 L -3.330804668131634 -0.009035001152346789 L -3.330804668131634 -0.009035001152346789 L -3.3311577771277943 -0.0086818921561862 L -3.539138975866292 0.07853602989544162 L -3.539138975866292 0.07853602989544162 L -3.5394920848624523 0.07853602989544162 L -4.637307953925253 0.5407557058694547 L -4.354114539004582 0.6562223476139176 L -3.2573579969302626 0.1947088896322261 L -2.7492341514553926 -0.019275162040999883 Z" fill="#032f52" transform="matrix(1,0,0,1,0,0)" fill-rule="nonzero"/></g><g clip-path="url(#SvgjsClipPath21961a9e5da62-0300-407e-8e75-0beea6eef810)"><path d=" M -3.0878656787732526 0.35784524585834787 C -3.112230199508323 0.43870720597908786 -3.118233052443051 0.5213347110806305 -3.108346000550558 0.6011373442128894 L -3.108346000550558 0.6011373442128894 C -3.108346000550558 0.6011373442128894 -3.108346000550558 0.6007842352167291 -3.108346000550558 0.6004311262205685 L -2.8964806028542953 0.5110945501919776 L -2.8964806028542953 0.5114476591881382 L -2.585038468240789 0.3800911126164551 C -2.5864509042254307 0.3807973306087765 -2.587863340210072 0.38150354860109714 -2.588922667198554 0.3818566575972576 L -2.5818604872753452 0.37867867663181354 C -2.5620863834903607 0.37020406072396317 -2.5405467347245736 0.36596675277003765 -2.5190070859587874 0.36596675277003765 C -2.498526764181482 0.36596675277003765 -2.4780464424041764 0.3698509517278027 -2.4579192296230317 0.3779724586394926 C -2.445913523753577 0.3829159845857387 -2.4349671448726036 0.3889188375204663 -2.424726983983951 0.39633412643983557 C -2.421549003018507 0.3984527804167981 -2.418371022053063 0.40092454338992123 -2.4155461500837796 0.40339630636304424 C -2.414486823095298 0.4041025243553653 -2.4134274961068165 0.4051618513438464 -2.4127212781144958 0.40586806933616737 C -2.4123681691183356 0.40586806933616737 -2.4123681691183356 0.40622117833232785 -2.412015060122175 0.40657428732848877 C -2.4109557331336937 0.4076336143169699 -2.4098964061452124 0.40833983230929083 -2.408837079156731 0.40939915929777193 C -2.4077777521682497 0.41045848628625303 -2.4067184251797684 0.41151781327473447 -2.405659098191287 0.41257714026321557 C -2.3597549286904305 0.4574219827755913 -2.3428056968747297 0.527337564015358 -2.3685826535944416 0.5898378563357555 C -2.3830601224370196 0.6262080829402806 -2.410249515141373 0.6544568026331156 -2.442382433791973 0.6717591434449776 L -2.1411804600671194 0.5446399048272196 L -2.140827351070959 0.5446399048272196 C -2.1341182801439107 0.3892719465166272 -2.2241610741648223 0.23955373214460152 -2.375997942513811 0.17775965781652503 C -2.411661951126015 0.16328218897394708 -2.4483852867267006 0.1544544640699359 -2.4851086223273855 0.15127648310449227 C -2.4875803853005087 0.15092337410833168 -2.4904052572697926 0.15092337410833168 -2.4928770202429154 0.1505702651121712 C -2.495348783216039 0.1505702651121712 -2.498173655185322 0.15021715611601072 -2.500645418158445 0.15021715611601072 C -2.5130042330240605 0.14951093812368976 -2.525009938893515 0.14951093812368976 -2.5370156447629704 0.15021715611601072 C -2.540193625728414 0.15021715611601072 -2.543371606693858 0.1505702651121712 -2.5465495876593023 0.15092337410833168 C -2.5497275686247463 0.15127648310449227 -2.55290554959019 0.15127648310449227 -2.556083530555634 0.15162959210065274 C -2.559261511521078 0.15198270109681322 -2.562439492486522 0.1523358100929737 -2.565617473451966 0.15268891908913385 C -2.5687954544174105 0.15304202808529388 -2.5719734353828536 0.1533951370814548 -2.575151416348298 0.15410135507377543 C -2.606578117006577 0.1586917720238611 -2.6369454906763745 0.16751949692787194 -2.665900428361531 0.1795252027973271 L -3.0885718967655746 0.3574921368621877 C -3.0885718967655746 0.3574921368621877 -3.0885718967655746 0.3574921368621877 -3.0885718967655746 0.3578452458583482 C -3.0885718967655746 0.3578452458583482 -3.0885718967655746 0.3578452458583482 -3.0885718967655746 0.3578452458583482 L -3.0878656787732526 0.35784524585834787 Z" fill="#7e909a" transform="matrix(1,0,0,1,0,0)" fill-rule="nonzero"/></g><g clip-path="url(#SvgjsClipPath21961a9e5da62-0300-407e-8e75-0beea6eef810)"><path d=" M -2.8964806028542953 0.5118007681842988 L -2.8964806028542953 0.5118007681842988 C -2.8964806028542953 0.5114476591881382 -2.8964806028542953 0.5114476591881382 -2.8964806028542953 0.5118007681842988 L -2.8964806028542953 0.5118007681842988 Z" fill="#7e909a" transform="matrix(1,0,0,1,0,0)" fill-rule="nonzero"/></g><g clip-path="url(#SvgjsClipPath21961a9e5da62-0300-407e-8e75-0beea6eef810)"><path d=" M -2.3865912123986233 0.8832714321450789 C -2.39188784734103 0.885390086122042 -2.397537591279597 0.887155631102844 -2.4028342262220037 0.8889211760836461 C -2.4074246431720887 0.8903336120682875 -2.412015060122175 0.8917460480529297 -2.4166054770722605 0.8931584840375716 C -2.4215490030185065 0.8945709200222133 -2.426845637960913 0.8959833560068547 -2.4321422729033197 0.8970426829953367 C -2.4353202538687637 0.8977489009876577 -2.438145125838047 0.8984551189799782 -2.4409699978073305 0.8991613369722992 C -2.4469728507420583 0.9002206639607803 -2.452975703676785 0.9016330999454222 -2.458978556611513 0.9023393179377429 C -2.525363047889675 0.9129325878225562 -2.5949255201332817 0.9062235168955078 -2.6613100114114436 0.8790341241911542 C -2.727694502689606 0.8518447314868004 -2.782426397094474 0.808059215962906 -2.822327713660603 0.7540335395503591 C -2.8258588036222076 0.7490900136041131 -2.829389893583812 0.7441464876578668 -2.8329209835454168 0.7392029617116208 C -2.834686528526219 0.7367311987384974 -2.8360989645108603 0.7342594357653746 -2.8378645094916624 0.7314345637960907 C -2.8491639973687968 0.7134260049919084 -2.8590510492612884 0.6947112281954054 -2.867172556172979 0.6749371244104209 C -2.8841217879886796 0.6343295898519706 -2.894008839881172 0.5908971833242366 -2.896480602854295 0.5467585588041822 C -2.8968337118504555 0.5375777249040105 -2.897186820846616 0.5287499999999997 -2.8968337118504555 0.5195691660998284 C -2.8968337118504555 0.5170974031267049 -2.8968337118504555 0.5142725311574218 -2.896480602854295 0.5118007681842983 C -2.896480602854295 0.5118007681842983 -2.896480602854295 0.5118007681842983 -2.896480602854295 0.5114476591881377 L -2.896480602854295 0.5110945501919776 L -3.1083460005505574 0.6004311262205685 C -3.1083460005505574 0.6004311262205685 -3.1083460005505574 0.6007842352167291 -3.1083460005505574 0.6011373442128894 L -3.1083460005505574 0.6011373442128894 L -3.1083460005505574 0.6011373442128894 C -3.082569043830846 0.8077061069667454 -2.9490938432822 0.9952069839279379 -2.7428781895245047 1.0792469250141221 C -2.5913944301716767 1.1410409993421986 -2.428258073945554 1.1353912554036314 -2.2880738024698606 1.0764220530448387 L -2.2880738024698606 1.0767751620409993 C -2.1478895309941666 1.017452850686046 -2.030304235272741 0.9051641899070265 -1.9685101609446645 0.7533273215580382 C -1.9610948720252952 0.7356718717500162 -1.9547389100944073 0.7180164219419941 -1.9494422751520006 0.700007863137812 C -1.9494422751520006 0.700007863137812 -1.9494422751520006 0.6996547541416515 -1.9494422751520006 0.6996547541416515 L -2.3717606345598843 0.8772685792103513 C -2.3767041605061308 0.8797403421834747 -2.3816476864523772 0.8815058871642768 -2.3865912123986233 0.8832714321450789 Z" fill="#587284" transform="matrix(1,0,0,1,0,0)" fill-rule="nonzero"/></g><g clip-path="url(#SvgjsClipPath21961a9e5da62-0300-407e-8e75-0beea6eef810)"><path d=" M -1.7803030659911516 0.8631442193639342 C -1.7803030659911516 0.8631442193639342 -1.7803030659911516 0.8631442193639342 -1.7803030659911516 0.8631442193639342 L -1.7803030659911516 0.8631442193639342 L -2.288073802469861 1.0767751620409993 L -2.288073802469861 1.0767751620409993 L -2.288073802469861 1.0764220530448387 C -2.4282580739455555 1.1353912554036323 -2.591394430171677 1.1410409993421986 -2.7428781895245047 1.0792469250141221 C -2.9490938432822005 0.9952069839279379 -3.082569043830846 0.8077061069667454 -3.108346000550558 0.6011373442128894 L -3.108346000550558 0.6011373442128894 C -3.11823305244305 0.5213347110806305 -3.112230199508323 0.43870720597908786 -3.0878656787732526 0.35784524585834787 L -3.0885718967655738 0.35819835485450835 L -3.326567360177708 0.45812820076791205 C -3.326920469173869 0.46413105370263963 -3.3276266871661893 0.470133906637367 -3.32797979616235 0.47613675957209456 C -3.32797979616235 0.4786085225452176 -3.3283329051585104 0.4810802855183406 -3.3283329051585104 0.4835520484914638 C -3.3283329051585104 0.48461137547994493 -3.3283329051585104 0.4860238114645873 -3.3286860141546706 0.4870831384530684 C -3.3286860141546706 0.4895549014261914 -3.3290391231508316 0.492026664399314 -3.3290391231508316 0.49449842737243743 C -3.329392232146992 0.4994419533186837 -3.329392232146992 0.5040323702687693 -3.329392232146992 0.5089758962150154 C -3.329392232146992 0.5114476591881386 -3.329392232146992 0.5139194221612616 -3.329392232146992 0.5160380761382243 C -3.329392232146992 0.5209816020844703 -3.329392232146992 0.5255720190345564 -3.329392232146992 0.5305155449808022 C -3.329392232146992 0.5329873079539257 -3.329392232146992 0.5354590709270483 -3.329392232146992 0.5375777249040109 C -3.329392232146992 0.5400494878771344 -3.329392232146992 0.5425212508502572 -3.329392232146992 0.5446399048272196 C -3.329392232146992 0.547111667800343 -3.329392232146992 0.5495834307734658 -3.3290391231508316 0.5517020847504283 C -3.3290391231508316 0.5541738477235517 -3.3290391231508316 0.5566456106966745 -3.3286860141546706 0.5587642646736374 C -3.3286860141546706 0.5612360276467606 -3.3283329051585104 0.5637077906198832 -3.3283329051585104 0.5658264445968463 C -3.32797979616235 0.5707699705430919 -3.32797979616235 0.575360387493178 -3.3276266871661893 0.5803039134394242 C -3.3276266871661893 0.5827756764125472 -3.327273578170029 0.5852474393856703 -3.327273578170029 0.5873660933626329 C -3.327273578170029 0.588425420351114 -3.326920469173868 0.5898378563357559 -3.326920469173868 0.590897183324237 C -3.326567360177708 0.5933689462973605 -3.326567360177708 0.5958407092704833 -3.3262142511815473 0.5979593632474457 C -3.3258611421853868 0.6039622161821735 -3.3251549241930665 0.6099650691169006 -3.3244487062007453 0.6159679220516282 C -3.324095597204585 0.6184396850247517 -3.323742488208424 0.6205583390017139 -3.323742488208424 0.6230301019748371 C -3.323036270216103 0.6290329549095647 -3.3223300522237826 0.6350358078442918 -3.321270725235301 0.640685551782859 C -3.3209176162391403 0.643157314755982 -3.32056450724298 0.6452759687329447 -3.32021139824682 0.6477477317060677 C -3.32021139824682 0.6488070586945488 -3.319858289250659 0.6502194946791909 -3.319505180254499 0.651278821667672 C -3.319152071258338 0.6537505846407953 -3.3187989622621776 0.6558692386177575 -3.3184458532660175 0.6583410015908809 C -3.3177396352736968 0.6629314185409664 -3.317033417281376 0.6678749444872129 -3.3159740902928942 0.6724653614372985 C -3.3156209812967337 0.6749371244104215 -3.3152678723005735 0.6770557783873837 -3.3145616543082523 0.6795275413605072 C -3.314208545312092 0.6819993043336302 -3.3135023273197715 0.6841179583105924 -3.313149218323611 0.6865897212837159 L -3.313149218323611 0.6865897212837159 C -3.3113836733428093 0.6947112281954059 -3.3096181283620068 0.7031858441032565 -3.3078525833812042 0.7113073510149467 C -3.307499474385044 0.7127197869995884 -3.3071463653888835 0.7144853319803904 -3.3067932563927234 0.7158977679650319 C -3.3067932563927234 0.7162508769611925 -3.306440147396563 0.716957094953513 -3.306440147396563 0.7173102039496736 C -3.3060870384004026 0.7187226399343155 -3.3057339294042416 0.7204881849151176 -3.3053808204080815 0.7219006208997593 C -3.3022028394426375 0.7353187627538557 -3.298318640484873 0.7487369046079525 -3.294434441527108 0.7621550464620491 C -3.2930220055424666 0.7663923544159746 -3.291962678553985 0.7706296623698993 -3.290550242569343 0.7748669703238248 C -3.2901971335731823 0.775573188316146 -3.2901971335731823 0.7762794063084665 -3.2898440245770217 0.7766325153046271 C -3.2894909155808616 0.778044951289269 -3.289137806584701 0.7791042782777505 -3.2884315885923803 0.780516714262392 C -3.2852536076269363 0.7900506571587239 -3.2820756266614923 0.7992314910588952 -3.278544536699888 0.8087654339552269 C -3.278191427703728 0.809824760943708 -3.2774852097114073 0.8112371969283504 -3.2771321007152467 0.8122965239168315 C -3.2767789917190857 0.8130027419091524 -3.2764258827229256 0.8137089599014732 -3.2764258827229256 0.8144151778937941 C -3.276072773726765 0.8154745048822752 -3.2753665557344442 0.8168869408669172 -3.275013446738284 0.8179462678553987 C -3.274660337742123 0.8186524858477197 -3.274307228745963 0.8193587038400402 -3.274307228745963 0.8200649218323611 C -3.2739541197498023 0.8211242488208422 -3.2732479017574816 0.8225366848054844 -3.2728947927613214 0.8235960117939655 C -3.27183546577284 0.8264208837632488 -3.270776138784359 0.8288926467363721 -3.2697168117958775 0.8317175187056557 C -3.267951266815075 0.8356017176634202 -3.2665388308304335 0.8394859166211853 -3.2647732858496314 0.8437232245751102 C -3.2640670678573107 0.8454887695559125 -3.2633608498649895 0.8472543145367147 -3.2626546318726684 0.8490198595175168 C -3.262301522876508 0.8500791865059979 -3.261595304884187 0.8511385134944797 -3.261242195888027 0.8521978404829608 C -3.2608890868918663 0.8529040584752817 -3.2605359778957057 0.8539633854637628 -3.2601828688995456 0.8546696034560838 C -3.2598297599033854 0.8557289304445649 -3.2591235419110647 0.8567882574330464 -3.258770432914904 0.857847584421528 C -3.258064214922583 0.85961312940233 -3.2573579969302626 0.8613786743831321 -3.2562986699417804 0.8631442193639342 C -3.2559455609456203 0.8642035463524157 -3.2552393429532995 0.8652628733408972 -3.254886233957139 0.8663222003293783 C -3.254533124960979 0.8670284183216993 -3.254180015964818 0.8680877453101804 -3.253826906968658 0.8687939633025014 C -3.2534737979724975 0.8698532902909825 -3.252767579980177 0.8709126172794642 -3.252414470984016 0.871618835271785 C -3.2517082529916954 0.873384380252587 -3.2506489260032145 0.8751499252333891 -3.249942708010893 0.8769154702141911 C -3.2478240540339307 0.8811527781681167 -3.246058509053128 0.885390086122042 -3.2439398550761656 0.8892742850798064 C -3.2428805280876842 0.8917460480529299 -3.2414680921030423 0.8938647020298921 -3.2404087651145614 0.8959833560068547 C -3.2400556561184004 0.8970426829953358 -3.23934943812608 0.8977489009876573 -3.2389963291299195 0.8988082279761384 C -3.238643220133759 0.8998675549646195 -3.2379370021414386 0.9005737729569404 -3.237583893145278 0.9016330999454215 C -3.2372307841491175 0.9023393179377425 -3.2365245661567963 0.9033986449262236 -3.236171457160636 0.904104862918545 C -3.2358183481644756 0.9051641899070261 -3.235112130172155 0.905870407899347 -3.2347590211759947 0.9069297348878281 C -3.2344059121798336 0.9076359528801491 -3.2336996941875134 0.9086952798686302 -3.2333465851913528 0.9094014978609511 C -3.229109277237427 0.9175230047726414 -3.224518860287342 0.9256445116843316 -3.219928443337256 0.9337660185960216 C -3.2188691163487753 0.9355315635768237 -3.2181628983564545 0.9369439995614651 -3.217103571367973 0.9387095445422676 C -3.216044244379492 0.9404750895230697 -3.21498491739101 0.9425937435000323 -3.2135724814063686 0.9443592884808348 C -3.2121600454217267 0.9468310514539579 -3.2107476094370853 0.9493028144270806 -3.2089820644562828 0.9517745774002041 C -3.2058040834908392 0.9570712123426107 -3.2022729935292347 0.9627209562811775 -3.1987419035676306 0.9680175912235841 C -3.1976825765791492 0.9694300272082256 -3.1969763585868285 0.9708424631928677 -3.1959170315983467 0.9722548991775096 C -3.1945045956137053 0.974373553154472 -3.193445268625224 0.9761390981352743 -3.1920328326405825 0.9782577521122372 C -3.191679723644422 0.9789639701045582 -3.1913266146482613 0.9793170791007183 -3.190973505652101 0.9800232970930393 C -3.1892079606712986 0.9828481690623224 -3.187089306694336 0.9856730410316065 -3.1853237617135344 0.9884979130008896 C -3.183558216732732 0.9909696759740131 -3.1817926717519294 0.9934414389471357 -3.180380235767288 0.9959132019202589 C -3.1796740177749667 0.9969725289087402 -3.1789677997826464 0.9976787469010614 -3.1782615817903253 0.9987380738895425 C -3.176849145805684 1.0005036188703444 -3.1754367098210414 1.002622272847307 -3.1740242738364 1.0043878178281096 C -3.1711994018671166 1.0079189077897137 -3.1687276388939933 1.0118031067474789 -3.16590276692471 1.015334196709083 C -3.162724785959266 1.0195715046630083 -3.1595468049938225 1.0238088126169336 -3.1563688240283776 1.0280461205708589 C -3.1510721890859714 1.034755191497907 -3.145422445147404 1.0418173714211156 -3.1397727012088374 1.048173333352004 C -3.137654047231875 1.0506450963251273 -3.1355353932549117 1.05311685929825 -3.1334167392779495 1.0555886222713733 C -3.132357412289468 1.0566479492598546 -3.1316511942971474 1.057707276248336 -3.1305918673086666 1.0587666032368173 C -3.129885649316345 1.059472821229138 -3.129179431324024 1.0605321482176193 -3.128473213331703 1.06123836620994 C -3.127413886343222 1.0622976931984218 -3.126354559354741 1.0633570201869031 -3.12564834136242 1.0647694561715446 C -3.1242359053777786 1.0661818921561865 -3.1228234693931363 1.0679474371369886 -3.121411033408495 1.0693598731216305 C -3.1199985974238533 1.070772309106272 -3.1189392704353716 1.0721847450909134 -3.1175268344507296 1.0735971810755558 C -3.1175268344507296 1.0735971810755558 -3.1171737254545695 1.073950290071716 -3.1171737254545695 1.073950290071716 C -3.1157612894699276 1.0753627260563583 -3.1143488534852857 1.0767751620409998 -3.1132895264968043 1.0781875980256417 C -3.111877090512163 1.0796000340102831 -3.1104646545275214 1.0813655789910852 -3.109052218542879 1.0827780149757271 C -3.0959871856849426 1.0965492658259843 -3.082215934834686 1.110320516676241 -3.068091574988268 1.1233855495341776 C -3.0673853569959473 1.1240917675264988 -3.0666791390036265 1.124797985518819 -3.065972921011306 1.1255042035111398 C -3.05361410614569 1.1368036913882742 -3.040902182283914 1.1477500702692476 -3.027837149425978 1.1583433401540608 C -3.0267778224374973 1.1594026671425421 -3.0253653864528554 1.1601088851348629 -3.024306059464374 1.1611682121233442 C -3.0126534625910795 1.1703490460235155 -3.001000865717785 1.1791767709275267 -2.98899515984833 1.1876513868353769 C -2.985464069886726 1.1901231498085 -2.981932979925121 1.1925949127816233 -2.978401889963517 1.1950666757547461 C -2.9759301269903937 1.1968322207355482 -2.9731052550211103 1.1985977657163502 -2.970633492047987 1.2003633106971523 C -2.968161729074864 1.2021288556779552 -2.965336857105581 1.2038944006587573 -2.962511985136297 1.2056599456395594 C -2.9607464401554955 1.2067192726280407 -2.958980895174693 1.2081317086126826 -2.9572153501938905 1.2091910356011635 C -2.9554498052130884 1.2102503625896448 -2.9536842602322864 1.2113096895781266 -2.9519187152514843 1.212722125562768 C -2.9437972083397943 1.217665651509014 -2.935675701428104 1.2229622864514211 -2.9272010855202537 1.227552703401507 C -2.9254355405394517 1.2286120303899883 -2.9233168865624886 1.2296713573784692 -2.9215513415816865 1.2307306843669505 C -2.9187264696124036 1.2324962293477526 -2.9159015976431193 1.2339086653323945 -2.913076725673836 1.2353211013170364 C -2.912017398685355 1.2356742103131966 -2.9113111806930334 1.2363804283055173 -2.9102518537045525 1.2367335373016775 C -2.9056614367544675 1.2392053002748007 -2.900717910808221 1.2420301722440845 -2.896127493858135 1.2445019352172078 C -2.8922432949003705 1.24662058919417 -2.8883590959426053 1.248386134174973 -2.884474896984841 1.250504788151935 C -2.880590698027076 1.2526234421288978 -2.8767064990693108 1.2543889871096998 -2.8728223001115465 1.2561545320905019 C -2.8717629731230656 1.256507641086663 -2.870703646134584 1.2572138590789832 -2.869997428142263 1.2575669680751442 C -2.867878774165301 1.2586262950636251 -2.8661132291844984 1.2593325130559463 -2.8639945752075358 1.2603918400444272 C -2.8629352482190544 1.2607449490405882 -2.861875921230573 1.2614511670329085 -2.8611697032382524 1.261804276029069 C -2.8590510492612897 1.2628636030175504 -2.857285504280487 1.2635698210098711 -2.855166850303525 1.2646291479983525 C -2.848104670380316 1.2678071289637964 -2.841042490457107 1.27098510992924 -2.8339803105338985 1.2738099818985238 C -2.831861656556936 1.2745161998908445 -2.8297430025799732 1.2755755268793258 -2.8279774575991707 1.2762817448716466 C -2.82691813061069 1.2766348538678067 -2.825858803622208 1.2769879628639678 -2.8247994766337268 1.277694180856289 C -2.818443514702839 1.2801659438294117 -2.812087552771951 1.282637706802534 -2.806084699837224 1.2851094697756578 C -2.800081846902496 1.28722812375262 -2.7944321029639294 1.289346777729583 -2.788429250029202 1.2914654317065453 C -2.7856043780599187 1.2925247586950266 -2.7824263970944747 1.2935840856835084 -2.7796015251251913 1.2946434126719892 C -2.627058438783882 1.346550435107574 -2.468865608504006 1.3504346340653384 -2.321972266101264 1.313358189468492 C -2.3177349581473385 1.3122988624800112 -2.3134976501934132 1.3112395354915298 -2.309260342239488 1.310180208503048 C -2.309260342239488 1.310180208503048 -2.309260342239488 1.310180208503048 -2.309260342239488 1.310180208503048 C -2.299726399343156 1.3077084455299248 -2.289839347450664 1.3048835735606419 -2.2803054045543316 1.301705592595198 C -2.2803054045543316 1.301705592595198 -2.2803054045543316 1.301705592595198 -2.2803054045543316 1.301705592595198 C -2.273949442623444 1.2995869386182357 -2.2675934806925557 1.2974682846412726 -2.2612375187616682 1.2953496306643104 C -2.2548815568307803 1.2932309766873473 -2.2485255948998923 1.2911123227103851 -2.2421696329690044 1.2886405597372623 C -2.2396978699958816 1.2879343417449411 -2.2375792160189194 1.2868750147564603 -2.2351074530457957 1.286168796764139 C -2.2333419080649937 1.285462578771818 -2.2315763630841916 1.2847563607794972 -2.23016392709955 1.284050142787176 C -2.2273390551302663 1.2829908157986951 -2.2248672921571435 1.2819314888102133 -2.2220424201878597 1.280872161821732 C -2.2192175482185768 1.2798128348332511 -2.2167457852454535 1.2787535078447698 -2.21392091327617 1.277694180856289 C -2.210742932310726 1.2762817448716466 -2.207564951345282 1.2752224178831648 -2.204740079375999 1.2738099818985238 L -1.7065032857936209 1.0640632381792239 L -1.4981689780589624 0.9764922071314356 L -0.40000000000000036 0.5167442941305448 L -0.6831934149206713 0.4012776523860817 L -0.6838996329129929 0.4016307613822422 L -0.6838996329129929 0.4016307613822422 L -0.6835465239168328 0.4016307613822422 L -1.7803030659911516 0.8631442193639342 Z" fill="#32546d" transform="matrix(1,0,0,1,0,0)" fill-rule="nonzero"/></g><g clip-path="url(#SvgjsClipPath21961a9e5da62-0300-407e-8e75-0beea6eef810)"><path d=" M -2.4423824337919724 0.6721122524411377 C -2.4423824337919724 0.6721122524411377 -2.4423824337919724 0.6721122524411377 -2.4423824337919724 0.6721122524411377 C -2.4430886517842936 0.6724653614372981 -2.443794869776614 0.6728184704334587 -2.444501087768935 0.6731715794296188 C -2.448032177730539 0.6749371244104209 -2.4519163766883043 0.6767026693912229 -2.4558005756460695 0.678468214372025 C -2.4558005756460695 0.678468214372025 -2.4558005756460695 0.678468214372025 -2.4558005756460695 0.678468214372025 C -2.4939363472313962 0.6943581191992448 -2.5384280807476114 0.6961236641800471 -2.5797418332983826 0.6791744323643464 C -2.644360779595743 0.6526912576523135 -2.682849660177231 0.5894847473395951 -2.6807310062002685 0.5241595830499141 C -2.6807310062002685 0.523100256061433 -2.6807310062002685 0.5220409290729514 -2.6807310062002685 0.5209816020844703 C -2.680024788207947 0.5029730432802878 -2.6761405892501826 0.48461137547994515 -2.6687253003308133 0.4669559256719237 C -2.660250684422963 0.4464756038946184 -2.6478918695573475 0.4281139360942755 -2.633061291718609 0.41328335825553697 C -2.6199962588606724 0.4005714343937611 -2.6051656810219344 0.38997816450894784 -2.5889226671985544 0.38220976659341843 C -2.587510231213913 0.3815035486010975 -2.586097795229271 0.38079733060877685 -2.585038468240789 0.3804442216126164 L -2.8964806028542953 0.5114476591881382 L -2.8964806028542953 0.5118007681842988 C -2.8964806028542953 0.5142725311574222 -2.896833711850456 0.5170974031267054 -2.896833711850456 0.5195691660998288 C -2.896833711850456 0.5287500000000002 -2.896833711850456 0.5379308339001715 -2.8964806028542953 0.5467585588041827 C -2.8943619488773327 0.5912502923203976 -2.88447489698484 0.6343295898519709 -2.8671725561729793 0.6749371244104211 C -2.8590510492612893 0.6947112281954059 -2.8491639973687968 0.7134260049919089 -2.837864509491663 0.7314345637960914 C -2.8360989645108607 0.7342594357653746 -2.834686528526219 0.7367311987384976 -2.832920983545417 0.739202961711621 C -2.829389893583812 0.7441464876578668 -2.825858803622208 0.7490900136041131 -2.822327713660604 0.7540335395503596 C -2.7824263970944747 0.8080592159629064 -2.727694502689607 0.8518447314868011 -2.6613100114114445 0.8790341241911545 C -2.594925520133282 0.9062235168955083 -2.5253630478896754 0.9129325878225566 -2.4589785566115134 0.9023393179377434 C -2.4529757036767856 0.9016330999454222 -2.4469728507420583 0.9002206639607807 -2.440969997807331 0.8991613369722996 C -2.4381451258380475 0.8984551189799787 -2.435320253868764 0.8977489009876579 -2.43214227290332 0.897042682995337 C -2.4268456379609136 0.8959833560068556 -2.421549003018507 0.8945709200222135 -2.416605477072261 0.893158484037572 C -2.4120150601221755 0.8917460480529303 -2.407424643172089 0.8903336120682889 -2.402834226222004 0.8889211760836465 C -2.3975375912795975 0.8871556311028442 -2.3918878473410303 0.8853900861220422 -2.3865912123986237 0.8832714321450793 C -2.3816476864523777 0.8815058871642772 -2.3767041605061316 0.8797403421834752 -2.371760634559885 0.8776216882065125 L -1.9494422751520015 0.7000078631378125 L -1.949089166155841 0.7000078631378125 C -1.924724645420771 0.6191459030170724 -1.9187217924860436 0.5365183979155298 -1.9289619533746958 0.45600954679094985 L -1.9289619533746958 0.45600954679094985 L -1.9289619533746958 0.45600954679094985 L -2.1408273510709583 0.5453461228195403 L -2.141180460067119 0.5453461228195403 L -2.4423824337919724 0.6721122524411377 Z" fill="#caccc7" transform="matrix(1,0,0,1,0,0)" fill-rule="nonzero"/></g><g clip-path="url(#SvgjsClipPath21961a9e5da62-0300-407e-8e75-0beea6eef810)"><path d=" M -2.5815073782791846 0.3793848946241345 C -2.619643149864512 0.39527479945135446 -2.652129177511272 0.42634839111347256 -2.668725300330813 0.4676621436642442 C -2.675787480254022 0.4849644844761053 -2.6796716792117863 0.5029730432802878 -2.6807310062002676 0.5209816020844703 C -2.6807310062002676 0.5220409290729514 -2.6807310062002676 0.523100256061433 -2.6807310062002676 0.5241595830499141 C -2.68249655118107 0.5898378563357555 -2.644360779595743 0.6530443666484741 -2.5797418332983826 0.6791744323643464 C -2.538428080747611 0.6961236641800471 -2.4939363472313962 0.6943581191992448 -2.455800575646069 0.678468214372025 C -2.455800575646069 0.678468214372025 -2.455800575646069 0.678468214372025 -2.455800575646069 0.678468214372025 C -2.451916376688304 0.6767026693912229 -2.4483852867266993 0.6752902334065812 -2.4445010877689346 0.6731715794296188 C -2.443794869776614 0.6728184704334582 -2.443088651784293 0.6724653614372978 -2.442382433791972 0.6721122524411377 C -2.442382433791972 0.6721122524411377 -2.442382433791972 0.6721122524411377 -2.442382433791972 0.6721122524411377 C -2.410249515141372 0.6551630206254365 -2.3830601224370187 0.6265611919364412 -2.3685826535944403 0.5901909653319156 C -2.342805696874729 0.527337564015358 -2.3597549286904296 0.4574219827755911 -2.4056590981912866 0.4129302492593757 C -2.4067184251797675 0.4118709222708946 -2.407777752168249 0.4108115952824132 -2.40883707915673 0.4097522682939321 C -2.4098964061452115 0.408692941305451 -2.4109557331336933 0.4079867233131299 -2.412015060122174 0.4069273963246488 C -2.4123681691183347 0.406574287328488 -2.4123681691183347 0.406574287328488 -2.4127212781144953 0.4062211783323275 C -2.413780605102976 0.40551496034000645 -2.4144868230952974 0.40445563335152535 -2.4155461500837783 0.4037494153592044 C -2.418371022053062 0.4012776523860814 -2.421549003018506 0.39880588941295825 -2.42472698398395 0.3966872354359957 C -2.434614035876442 0.3896250555127869 -2.445560414757416 0.38362220257805935 -2.4575661206268706 0.3786786766318132 C -2.4988798731776423 0.3617294448161129 -2.5433716066938574 0.36349498979691497 -2.5815073782791846 0.3793848946241345 Z" fill="#f0eadd" transform="matrix(1,0,0,1,0,0)" fill-rule="nonzero"/></g><g clip-path="url(#SvgjsClipPath21961a9e5da62-0300-407e-8e75-0beea6eef810)"><path d=" M -1.7728877770717824 0.8469012055405541 C -1.7753595400449056 0.8521978404829608 -1.7778313030180284 0.857847584421528 -1.779949956994991 0.8627911103677738 C -1.779949956994991 0.8627911103677738 -1.779949956994991 0.8627911103677738 -1.779949956994991 0.8631442193639342 L -0.6835465239168315 0.4016307613822422 L -0.6838996329129916 0.4016307613822422 L -0.9667399388375024 0.28616411963777866 L -1.7107405937475457 0.5993717992320874 C -1.7178027736707544 0.678468214372025 -1.7365175504672572 0.757564629511963 -1.7679442511255363 0.8348954996710992 C -1.7697097961063384 0.8387796986288639 -1.7711222320909803 0.8430170065827892 -1.7728877770717824 0.8469012055405541 Z" fill="#587284" transform="matrix(1,0,0,1,0,0)" fill-rule="nonzero"/></g><g clip-path="url(#SvgjsClipPath21961a9e5da62-0300-407e-8e75-0beea6eef810)"><path d=" M -1.7234525176093212 0.37020406072396317 C -1.7093281577629034 0.44188518694453205 -1.7040315228204972 0.5163911851343844 -1.7100343757552245 0.5908971833242366 C -1.7103874847513856 0.5937220552935202 -1.7103874847513856 0.5965469272628038 -1.7107405937475457 0.5990186902359266 L -1.7107405937475457 0.5990186902359266 L -0.9663868298413432 0.2858110106416182 L -1.2495802447620141 0.1703443688971551 L -1.2499333537581743 0.17069747789331557 L -1.2495802447620141 0.17069747789331557 L -1.7234525176093212 0.37020406072396317 Z" fill="#caccc7" transform="matrix(1,0,0,1,0,0)" fill-rule="nonzero"/></g><g clip-path="url(#SvgjsClipPath21961a9e5da62-0300-407e-8e75-0beea6eef810)"><path d=" M -1.8269134534843294 0.10537231360363486 C -1.8269134534843294 0.10537231360363486 -1.8269134534843294 0.10537231360363486 -1.8269134534843294 0.10537231360363486 C -1.8262072354920087 0.10607853159595593 -1.8258541264958486 0.10713785858443703 -1.8255010174996875 0.10784407657675799 C -1.8255010174996875 0.10784407657675799 -1.8255010174996875 0.10784407657675799 -1.8255010174996875 0.10784407657675799 C -1.825147908503527 0.10855029456907939 -1.8244416905112066 0.10960962155756049 -1.824088581515046 0.11031583954988144 C -1.824088581515046 0.11031583954988144 -1.824088581515046 0.11031583954988144 -1.824088581515046 0.11031583954988144 C -1.8237354725188855 0.1110220575422024 -1.8230292545265647 0.1120813845306835 -1.8226761455304046 0.11278760252300446 C -1.8226761455304046 0.11278760252300446 -1.8226761455304046 0.11314071151916505 -1.822323036534244 0.11314071151916505 C -1.8219699275380834 0.113846929511486 -1.8216168185419228 0.11455314750380663 -1.8209106005496025 0.11525936549612792 C -1.8209106005496025 0.11561247449228851 -1.820557491553442 0.11561247449228851 -1.820557491553442 0.11596558348844899 C -1.8202043825572813 0.11667180148076994 -1.8198512735611208 0.11737801947309057 -1.8194981645649606 0.11808423746541152 C -1.8194981645649606 0.118437346461572 -1.8191450555688005 0.118437346461572 -1.8191450555688005 0.11879045545773248 C -1.8187919465726394 0.11949667345005355 -1.8184388375764788 0.12020289144237406 -1.8180857285803187 0.12055600043853465 C -1.8180857285803187 0.12090910943469546 -1.817732619584158 0.12126221843085594 -1.817732619584158 0.12126221843085594 C -1.817379510587998 0.1219684364231769 -1.8170264015918374 0.12232154541933704 -1.8166732925956772 0.123027763411658 C -1.8166732925956772 0.12338087240781859 -1.8163201835995166 0.12373398140397907 -1.8163201835995166 0.12373398140397907 C -1.815967074603356 0.12444019939630002 -1.815613965607196 0.12479330839246017 -1.8152608566110358 0.12549952638478112 C -1.8149077476148752 0.1258526353809416 -1.8149077476148752 0.12620574437710208 -1.8145546386187146 0.12655885337326223 C -1.814201529622554 0.1269119623694227 -1.8138484206263938 0.12761818036174366 -1.8134953116302337 0.12797128935790425 C -1.813142202634073 0.12832439835406473 -1.813142202634073 0.1286775073502252 -1.8127890936379125 0.12903061634638535 C -1.812435984641752 0.12938372534254583 -1.8120828756455913 0.13008994333486645 -1.8120828756455913 0.13044305233102693 C -1.8117297666494308 0.1307961613271874 -1.8117297666494308 0.1311492703233479 -1.8113766576532702 0.13150237931950803 C -1.8110235486571096 0.1318554883156685 -1.8110235486571096 0.13256170630798914 -1.810670439660949 0.1329148153041496 C -1.8103173306647888 0.1332679243003101 -1.8103173306647888 0.13397414229263072 -1.8099642216686282 0.1343272512887912 C -1.8096111126724677 0.13468036028495212 -1.8096111126724677 0.1350334692811126 -1.809258003676307 0.13573968727343322 C -1.808904894680147 0.1360927962695937 -1.808904894680147 0.13679901426191432 -1.8085517856839863 0.1371521232580748 C -1.8081986766878257 0.13750523225423528 -1.8081986766878257 0.13785834125039576 -1.8078455676916652 0.1382114502465559 C -1.8074924586955046 0.13856455924271638 -1.8071393496993444 0.139270777235037 -1.8071393496993444 0.13962388623119748 C -1.8067862407031834 0.13997699522735796 -1.8067862407031834 0.14033010422351844 -1.8064331317070228 0.14068321321967858 C -1.8060800227108622 0.14103632221583906 -1.805726913714702 0.14174254020815968 -1.805726913714702 0.1420956492043205 C -1.8053738047185415 0.14244875820048097 -1.8053738047185415 0.14280186719664156 -1.8050206957223809 0.1431549761928016 C -1.8046675867262203 0.14386119418512266 -1.8043144777300602 0.1442143031812827 -1.8043144777300602 0.14492052117360377 C -1.8043144777300602 0.14527363016976425 -1.8039613687338996 0.14562673916592472 -1.8039613687338996 0.14597984816208487 C -1.803608259737739 0.14668606615440583 -1.8032551507415784 0.14703917515056597 -1.8029020417454182 0.14774539314288693 C -1.8029020417454182 0.1480985021390474 -1.8025489327492576 0.14845161113520788 -1.8025489327492576 0.14845161113520788 C -1.8021958237530975 0.14915782912752928 -1.801842714756937 0.1498640471198499 -1.8014896057607768 0.1502171561160104 C -1.8014896057607768 0.15057026511217086 -1.8011364967646162 0.15057026511217086 -1.8011364967646162 0.15092337410833134 C -1.8007833877684556 0.1516295921006523 -1.800430278772295 0.15233581009297292 -1.8000771697761349 0.15304202808529388 C -1.8000771697761349 0.15339513708145447 -1.7997240607799743 0.15339513708145447 -1.7997240607799743 0.15374824607761495 C -1.7993709517838137 0.1544544640699359 -1.799017842787653 0.15516068206225686 -1.7986647337914934 0.15586690005457793 C -1.7986647337914934 0.1562200090507384 -1.7983116247953328 0.1562200090507384 -1.7983116247953328 0.15657311804689888 C -1.7979585157991722 0.15727933603921984 -1.7976054068030116 0.15798555403154046 -1.7972522978068515 0.15869177202386142 C -1.7972522978068515 0.15869177202386142 -1.7972522978068515 0.15869177202386142 -1.7972522978068515 0.1590448810200219 C -1.7968991888106909 0.15975109901234297 -1.7965460798145307 0.16081042600082407 -1.79583986182221 0.16151664399314536 C -1.79583986182221 0.16151664399314536 -1.79583986182221 0.16151664399314536 -1.79583986182221 0.16151664399314536 C -1.7954867528260494 0.16222286198546632 -1.7951336438298888 0.16328218897394753 -1.7944274258375685 0.16398840696626849 C -1.7944274258375685 0.16398840696626849 -1.7944274258375685 0.16398840696626849 -1.7944274258375685 0.16398840696626849 C -1.7622945071869682 0.22790113527130784 -1.7386362044442194 0.29640428052643264 -1.724511844597802 0.36667297076235983 C -1.724511844597802 0.3673791887546808 -1.724158735601641 0.3680854067470014 -1.724158735601641 0.36879162473932237 L -1.724158735601641 0.36879162473932237 L -1.724158735601641 0.36879162473932237 L -1.2502864627543335 0.1692850419086751 L -1.2506395717504937 0.1692850419086751 L -1.5038187219975274 0.06582410603366684 L -1.712859247724507 -0.019275162040998772 L -2.2132146952838476 -0.2233721618217313 C -2.211096041306885 -0.22266594382941035 -2.208977387329922 -0.22160661684092925 -2.20721184234912 -0.22090039884860824 C -2.042663050138357 -0.15133792660500356 -1.9130720485474764 -0.03516506686821941 -1.8269134534843294 0.10537231360363486 Z" fill="#f0eadd" transform="matrix(1,0,0,1,0,0)" fill-rule="nonzero"/></g></g><g><path d=" M 0.753 0.8849999999999999 L 0.378 0.8849999999999999 L 0.321 1.0574999999999999 L 0.012 1.0574999999999999 L 0.3975 -2.220446049250313e-16 L 0.7365 -2.220446049250313e-16 L 1.1205 1.0574999999999999 L 0.81 1.0574999999999999 L 0.753 0.8849999999999999 M 0.6795 0.6599999999999999 L 0.5655 0.31799999999999984 L 0.453 0.6599999999999999 L 0.6795 0.6599999999999999 M 1.93200732421875 -2.220446049250313e-16 L 1.93200732421875 0.23399999999999987 L 1.50900732421875 0.23399999999999987 L 1.50900732421875 0.4199999999999998 L 1.82100732421875 0.4199999999999998 L 1.82100732421875 0.6434999999999998 L 1.50900732421875 0.6434999999999998 L 1.50900732421875 1.0574999999999999 L 1.21500732421875 1.0574999999999999 L 1.21500732421875 -2.220446049250313e-16 L 1.93200732421875 -2.220446049250313e-16 M 2.375968505859375 0.8189999999999998 L 2.815468505859375 0.8189999999999998 L 2.815468505859375 1.0574999999999999 L 2.045968505859375 1.0574999999999999 L 2.045968505859375 0.8339999999999999 L 2.4809685058593747 0.23699999999999988 L 2.045968505859375 0.23699999999999988 L 2.045968505859375 -2.220446049250313e-16 L 2.815468505859375 -2.220446049250313e-16 L 2.815468505859375 0.22349999999999992 L 2.375968505859375 0.8189999999999998 M 3.6419326171875 0.8849999999999999 L 3.2669326171875 0.8849999999999999 L 3.2099326171875 1.0574999999999999 L 2.9009326171875 1.0574999999999999 L 3.2864326171875 -2.220446049250313e-16 L 3.6254326171874998 -2.220446049250313e-16 L 4.0094326171875 1.0574999999999999 L 3.6989326171875 1.0574999999999999 L 3.6419326171875 0.8849999999999999 M 3.5684326171875 0.6599999999999999 L 3.4544326171875 0.31799999999999984 L 3.3419326171874997 0.6599999999999999 L 3.5684326171875 0.6599999999999999 M 4.39793994140625 0.8324999999999999 L 4.72643994140625 0.8324999999999999 L 4.72643994140625 1.0574999999999999 L 4.103939941406249 1.0574999999999999 L 4.103939941406249 -2.220446049250313e-16 L 4.39793994140625 -2.220446049250313e-16 L 4.39793994140625 0.8324999999999999 M 6.3584501953125 -2.220446049250313e-16 L 6.3584501953125 1.0574999999999999 L 6.064450195312499 1.0574999999999999 L 6.064450195312499 0.47399999999999987 L 5.8649501953125 1.0574999999999999 L 5.618950195312499 1.0574999999999999 L 5.4179501953125 0.4694999999999999 L 5.4179501953125 1.0574999999999999 L 5.123950195312499 1.0574999999999999 L 5.123950195312499 -2.220446049250313e-16 L 5.479450195312499 -2.220446049250313e-16 L 5.7449501953125 0.6869999999999998 L 6.0044501953125 -2.220446049250313e-16 L 6.3584501953125 -2.220446049250313e-16 M 6.818946533203125 -2.220446049250313e-16 L 6.818946533203125 1.0574999999999999 L 6.524946533203124 1.0574999999999999 L 6.524946533203124 -2.220446049250313e-16 L 6.818946533203125 -2.220446049250313e-16 M 7.654421630859375 0.8849999999999999 L 7.279421630859375 0.8849999999999999 L 7.222421630859374 1.0574999999999999 L 6.913421630859374 1.0574999999999999 L 7.2989216308593745 -2.220446049250313e-16 L 7.637921630859375 -2.220446049250313e-16 L 8.021921630859374 1.0574999999999999 L 7.711421630859375 1.0574999999999999 L 7.654421630859375 0.8849999999999999 M 7.5809216308593745 0.6599999999999999 L 7.466921630859375 0.31799999999999984 L 7.354421630859375 0.6599999999999999 L 7.5809216308593745 0.6599999999999999 M 9.062928955078124 -2.220446049250313e-16 L 9.062928955078124 1.0574999999999999 L 8.768928955078124 1.0574999999999999 L 8.768928955078124 0.6329999999999999 L 8.410428955078125 0.6329999999999999 L 8.410428955078125 1.0574999999999999 L 8.116428955078124 1.0574999999999999 L 8.116428955078124 -2.220446049250313e-16 L 8.410428955078125 -2.220446049250313e-16 L 8.410428955078125 0.39749999999999985 L 8.768928955078124 0.39749999999999985 L 8.768928955078124 -2.220446049250313e-16 L 9.062928955078124 -2.220446049250313e-16" fill="#64ffda" fill-rule="nonzero"/></g><g/></g><defs><clipPath id="SvgjsClipPath21963"><path d=" M -4.637307953925253 -0.5803653569399353 h 4.237307953925253 v 2.2182307138798705 h -4.237307953925253 Z"/></clipPath><clipPath id="SvgjsClipPath21961a9e5da62-0300-407e-8e75-0beea6eef810"><path d=" M -4.637307953925253 -0.5803653569399351 L -0.40000000000000036 -0.5803653569399351 L -0.40000000000000036 1.637865356939935 L -4.637307953925253 1.637865356939935 Z"/></clipPath></defs></svg>